<svg xmlns="http://www.w3.org/2000/svg" viewBox="0 0 800 800">
  <defs>
    <linearGradient id="docGradient1" x1="0%" y1="0%" x2="100%" y2="100%">
      <stop offset="0%" stop-color="#f8fafc" />
      <stop offset="100%" stop-color="#e2e8f0" />
    </linearGradient>
    <linearGradient id="docGradient2" x1="0%" y1="0%" x2="100%" y2="100%">
      <stop offset="0%" stop-color="#edf7ed" />
      <stop offset="100%" stop-color="#d1ecd2" />
    </linearGradient>
    <linearGradient id="docGradient3" x1="0%" y1="0%" x2="100%" y2="100%">
      <stop offset="0%" stop-color="#f1f5f9" />
      <stop offset="100%" stop-color="#cbd5e1" />
    </linearGradient>
    <filter id="shadow" x="-10%" y="-10%" width="120%" height="120%">
      <feDropShadow dx="8" dy="8" stdDeviation="10" flood-opacity="0.15"/>
    </filter>
  </defs>
  
  <!-- Background elements -->
  <circle cx="400" cy="400" r="350" fill="#f8fafc" opacity="0.3" />
  <circle cx="400" cy="400" r="250" fill="#edf7ed" opacity="0.4" />
  
  <!-- Document stack -->
  <g transform="translate(270, 150)" filter="url(#shadow)">
    <!-- Document 3 (back) -->
    <rect x="20" y="20" width="300" height="380" rx="8" fill="url(#docGradient3)" />
    <rect x="50" y="60" width="240" height="20" rx="4" fill="#94a3b8" opacity="0.5" />
    <rect x="50" y="100" width="180" height="20" rx="4" fill="#94a3b8" opacity="0.5" />
    <rect x="50" y="140" width="220" height="20" rx="4" fill="#94a3b8" opacity="0.5" />
    <rect x="50" y="180" width="150" height="20" rx="4" fill="#94a3b8" opacity="0.5" />
    <circle cx="280" cy="280" r="30" fill="#cbd5e1" opacity="0.6" />
  </g>
  
  <g transform="translate(240, 130)" filter="url(#shadow)">
    <!-- Document 2 (middle) -->
    <rect x="20" y="20" width="300" height="380" rx="8" fill="url(#docGradient2)" />
    <rect x="50" y="60" width="240" height="20" rx="4" fill="#7fc280" opacity="0.5" />
    <rect x="50" y="100" width="180" height="20" rx="4" fill="#7fc280" opacity="0.5" />
    <rect x="50" y="140" width="220" height="20" rx="4" fill="#7fc280" opacity="0.5" />
    <rect x="50" y="180" width="150" height="20" rx="4" fill="#7fc280" opacity="0.5" />
    <rect x="50" y="220" width="200" height="20" rx="4" fill="#7fc280" opacity="0.5" />
    <rect x="50" y="300" width="240" height="60" rx="4" fill="#a7d8a8" opacity="0.3" />
  </g>
  
  <g transform="translate(210, 110)" filter="url(#shadow)">
    <!-- Document 1 (front) -->
    <rect x="20" y="20" width="300" height="380" rx="8" fill="url(#docGradient1)" />
    <rect x="50" y="60" width="240" height="20" rx="4" fill="#64748b" opacity="0.7" />
    <rect x="50" y="100" width="180" height="20" rx="4" fill="#64748b" opacity="0.7" />
    <rect x="50" y="140" width="220" height="20" rx="4" fill="#64748b" opacity="0.7" />
    <rect x="50" y="180" width="150" height="20" rx="4" fill="#64748b" opacity="0.7" />
    <rect x="50" y="220" width="200" height="20" rx="4" fill="#64748b" opacity="0.7" />
    
    <!-- Signature area -->
    <rect x="50" y="300" width="240" height="60" rx="4" fill="#f1f5f9" />
    <path d="M70,330 C90,310 110,350 130,320 C150,290 170,340 190,330 C210,320 230,350 250,330" 
          stroke="#3d883f" stroke-width="3" fill="none" />
  </g>
  
  <!-- Lock icon overlay -->
  <g transform="translate(350, 300)">
    <circle cx="50" cy="50" r="50" fill="#3d883f" opacity="0.9" />
    <path d="M50,30 C41,30 34,37 34,46 L34,54 L66,54 L66,46 C66,37 59,30 50,30 Z M50,36 C56,36 60,40 60,46 L60,48 L40,48 L40,46 C40,40 44,36 50,36 Z" 
          fill="white" />
    <rect x="38" y="54" width="24" height="20" rx="2" fill="white" />
  </g>
  
  <!-- Abstract security elements -->
  <g opacity="0.5">
    <circle cx="150" cy="200" r="10" fill="#3d883f" opacity="0.7" />
    <circle cx="650" cy="200" r="10" fill="#3d883f" opacity="0.7" />
    <circle cx="150" cy="600" r="10" fill="#3d883f" opacity="0.7" />
    <circle cx="650" cy="600" r="10" fill="#3d883f" opacity="0.7" />
    
    <path d="M150,200 L650,200" stroke="#3d883f" stroke-width="2" stroke-dasharray="10,15" opacity="0.3" />
    <path d="M150,600 L650,600" stroke="#3d883f" stroke-width="2" stroke-dasharray="10,15" opacity="0.3" />
    <path d="M150,200 L150,600" stroke="#3d883f" stroke-width="2" stroke-dasharray="10,15" opacity="0.3" />
    <path d="M650,200 L650,600" stroke="#3d883f" stroke-width="2" stroke-dasharray="10,15" opacity="0.3" />
  </g>
</svg> 